<svg xmlns="http://www.w3.org/2000/svg" viewBox="0 0 50.36 45.13"><defs><style>.cls-1{fill:#010101;}</style></defs><g id="Layer_2" data-name="Layer 2"><g id="Layer_1-2" data-name="Layer 1"><path class="cls-1" d="M50.34,10.52a.7.7,0,0,0-.68-.85H29.59c-4.72,0-9.44,0-14.17,0-.38,0-.52-.1-.59-.46-.64-2.91-1.3-5.81-1.92-8.72-.08-.4-.22-.5-.61-.5H0V3.23c3.22,0,6.44,0,9.66,0,.43,0,.57.12.66.52q2.65,12,5.33,24c.09.38.34.91.18,1.11s-.76.07-1.16.1h-.05a4.83,4.83,0,0,0-2.13,9.13,6.78,6.78,0,0,0,3.5.53c.41,0,.72,0,.46.54a1.81,1.81,0,0,0-.11.58,4.84,4.84,0,0,0,9.45,1.88,5,5,0,0,0-.06-3l.3,0c2.13,0,4.26,0,6.39,0,.29,0,.26.14.2.33a4,4,0,0,0-.14,2,4.83,4.83,0,1,0,9.44-2c-.11-.37,0-.37.32-.37.89,0,1.79,0,2.68,0,.34,0,.42-.09.41-.42a21.11,21.11,0,0,1,0-2.25c0-.49-.13-.57-.58-.57q-14.79,0-29.59,0c-.17,0-.35,0-.53,0a1.62,1.62,0,0,1-1.41-2.17A1.71,1.71,0,0,1,15,32.22H44.45c.42,0,.56-.12.66-.52.79-3.12,1.61-6.24,2.42-9.36.34-1.28.66-2.56,1-3.9h0ZM37.28,38.67a1.61,1.61,0,1,1-1.62,1.59A1.65,1.65,0,0,1,37.28,38.67Zm-16.11,0a1.61,1.61,0,0,1,0,3.21,1.61,1.61,0,1,1,0-3.21Zm24.46-25-1.15,5.57-.22,0c-1.9.08-3.8,0-5.69,0-.37,0-.87.17-1.08-.08s0-.67,0-1h0l.66-5.33H45A.69.69,0,0,1,45.63,13.72ZM17,19c-.43-2-.86-3.89-1.31-5.83-.08-.37.14-.28.32-.28h7.29c.25,0,.39,0,.42.33.13,1.92.29,3.84.45,5.77,0,.28,0,.35-.32.35-2.15,0-4.29,0-6.44,0C17.17,19.34,17.07,19.27,17,19ZM24.7,29c-1.71,0-3.43,0-5.15,0-.24,0-.33-.07-.38-.31-.44-2-.9-4.06-1.36-6.14h6.3c.21,0,.38,0,.41.3q.23,2.91.5,5.82C25.05,29,25,29,24.7,29Zm8.7-.31c0,.22-.1.31-.33.3h-4.5c-.24,0-.31-.08-.32-.31-.15-1.94-.3-3.88-.47-5.81,0-.28.06-.33.31-.33.91,0,1.82,0,2.73,0s1.83,0,2.74,0c.26,0,.32.06.3.33Q33.6,25.79,33.4,28.7Zm.44-9.36c-2,0-4,0-6,0-.28,0-.35-.09-.37-.35-.15-1.85-.3-3.71-.49-5.56,0-.46.07-.56.52-.55,1.36,0,2.73,0,4.17,0h2.91c.16.07.14.17.14.17l-.33,3.67-.09,1,0,.5h0c0,.27,0,.54-.07.8S34.11,19.34,33.84,19.34ZM42.16,29H36.91c-.25,0-.31-.07-.29-.3.18-2,.35-3.91.51-5.87,0-.26.13-.28.34-.28h6.34l-1.28,6.16A.32.32,0,0,1,42.16,29Z"></path></g></g></svg>