<svg xmlns="http://www.w3.org/2000/svg" viewBox="0 0 33.9 46.9"><defs><style>.cls-1{fill:#020202;}</style></defs><g id="Layer_2" data-name="Layer 2"><g id="Layer_1-2" data-name="Layer 1"><path class="cls-1" d="M33.9,33.9a8.74,8.74,0,0,0-2.72-6.55l-4.31-4.3a.94.94,0,0,1-.31-.75q0-9.56,0-19.1A3.19,3.19,0,0,0,24.37.15c-.15,0-.34,0-.46-.15H2.66s0,.06-.06.06A3.16,3.16,0,0,0,0,3.34V34.25a3.19,3.19,0,0,0,3.31,3.31c2.47,0,4.94,0,7.42,0a.45.45,0,0,1,.53.41,7.76,7.76,0,0,0,3.13,4.52.54.54,0,0,1,.27.52c0,.8,0,1.59,0,2.38a1.37,1.37,0,0,0,1.53,1.52H32.35a1.38,1.38,0,0,0,1.54-1.55C33.89,41.53,33.88,37.72,33.9,33.9ZM2.75,3.54c0-.68.11-.79.8-.79H23c.71,0,.82.1.82.82q0,7.95,0,15.89a.8.8,0,0,1,0,.47,4.44,4.44,0,0,0-2.42-1.28,4.16,4.16,0,0,0-4.67,3.28,4.08,4.08,0,0,0,1.2,3.79c1.07,1.08,2.14,2.14,3.21,3.21a2.61,2.61,0,0,0,.41.28.92.92,0,0,1-.56.1H3.21c-.38,0-.47-.08-.47-.46Q2.76,16.2,2.75,3.54Zm.81,31.27c-.71,0-.81-.11-.81-.82,0-.54,0-1.07,0-1.6,0-.26.06-.34.33-.34.77,0,1.55,0,2.33,0H21.9a8.38,8.38,0,0,0-.64,2.55c0,.16-.06.21-.21.2a2.62,2.62,0,0,0-.28,0Zm27.15,9.35H17.85c-.35,0-.48-.07-.45-.44s0-1,0-1.46a1.7,1.7,0,0,0-1-1.8,4.91,4.91,0,0,1-2.32-2.78.31.31,0,0,1,0-.12h7.22c.24,0,.33.09.4.31a6.28,6.28,0,0,0,.36.94,1.4,1.4,0,0,0,1.83.75,1.37,1.37,0,0,0,.69-1.87,5.45,5.45,0,0,1-.19-4.3,5.52,5.52,0,0,1,1.11-1.77,1.4,1.4,0,0,0,0-2.23l-5.54-5.54a1.49,1.49,0,0,1-.52-1.21,1.26,1.26,0,0,1,.85-1.15,1.33,1.33,0,0,1,1.51.34q1.53,1.51,3,3c1.48,1.48,2.95,3,4.44,4.43A6.21,6.21,0,0,1,31.15,34q0,4.88,0,9.75C31.15,44.06,31.08,44.16,30.71,44.16Z"></path><path class="cls-1" d="M7.79,16.76a1.35,1.35,0,0,0,1.37-1.35q0-.57,0-1.14c0-.2.05-.27.25-.26.38,0,.76,0,1.15,0a1.37,1.37,0,0,0,0-2.74H7.77a1.34,1.34,0,0,0-1.36,1.36c0,.93,0,1.86,0,2.79A1.34,1.34,0,0,0,7.79,16.76Z"></path><path class="cls-1" d="M14.66,12.63A1.35,1.35,0,0,0,16,14c.46,0,1.07-.15,1.32.08s.07.88.09,1.35a1.37,1.37,0,0,0,1.36,1.32,1.35,1.35,0,0,0,1.39-1.32c0-.48,0-.95,0-1.42s0-.95,0-1.42a1.34,1.34,0,0,0-1.34-1.33H16A1.34,1.34,0,0,0,14.66,12.63Z"></path><path class="cls-1" d="M10.58,22.26c-.46,0-1.07.16-1.33-.07s-.07-.88-.09-1.35a1.36,1.36,0,0,0-1.39-1.33,1.35,1.35,0,0,0-1.35,1.33c0,.94,0,1.89,0,2.83A1.33,1.33,0,0,0,7.75,25H9.17c.47,0,.95,0,1.42,0a1.37,1.37,0,0,0,0-2.74Z"></path><path class="cls-1" d="M11.45,8.24h3.66a1.37,1.37,0,1,0,0-2.74H11.45a1.37,1.37,0,1,0,0,2.74Z"></path><path class="cls-1" d="M13.3,16.76a1.38,1.38,0,1,0,1.36,1.38A1.37,1.37,0,0,0,13.3,16.76Z"></path></g></g></svg>