<svg xmlns="http://www.w3.org/2000/svg" viewBox="0 0 40.85 40.86"><g id="Layer_2" data-name="Layer 2"><g id="Layer_1-2" data-name="Layer 1"><path d="M5,7.09A19.62,19.62,0,0,0,.2,17.61,19.9,19.9,0,0,0,4.37,33a19.7,19.7,0,0,0,12.26,7.47,19.84,19.84,0,0,0,16.39-4A20,20,0,0,0,40.5,24.23a13.49,13.49,0,0,0,.27-2c0-.07,0-.16.08-.2v-.48c-.15-.14-.05-.32-.07-.47h0c0-.14-.06-.29.07-.41v-.47c-.13-.12-.06-.27-.07-.41s-.08-.33.07-.47v-.4a10,10,0,0,1-.22-1.55A20.52,20.52,0,0,0,23.26.18,9.41,9.41,0,0,1,21.86,0h-.31c-.14.15-.32.05-.48.08h0c-.14,0-.29.05-.4-.08h-.48c-.12.13-.27.06-.4.08s-.34.07-.48-.08h-.48a7.15,7.15,0,0,1-1.46.22A20.2,20.2,0,0,0,5,7.09ZM20.46,3.33a17.1,17.1,0,1,1-17.12,17A17.11,17.11,0,0,1,20.46,3.33Z"></path><path d="M19.78,0h0V0h-.48C19.46.09,19.63,0,19.78,0Z"></path><path d="M21.08,0c.15,0,.31,0,.47,0h-.48V0Z"></path><path d="M40.81,19.78h0v-.48C40.77,19.46,40.83,19.62,40.81,19.78Z"></path><path d="M40.81,21.07c0,.16,0,.32,0,.47v-.48h0Z"></path><path d="M20.19,0h-.4a0,0,0,0,1,0,0C19.94,0,20.07.08,20.19,0Z"></path><path d="M19.81,0h0v0s0,0,0,0Z"></path><path d="M21.05,0h0s0,0,0,0h-.4C20.79.08,20.92,0,21.05,0Z"></path><path d="M21.05,0s0,0,0,0V0Z"></path><path d="M40.81,19.81c0,.13,0,.26,0,.38v-.4S40.83,19.81,40.81,19.81Z"></path><path d="M40.81,19.78h0s0,0,0,0Z"></path><path d="M40.81,21s0,0,0,0v-.4C40.78,20.78,40.82,20.91,40.81,21Z"></path><path d="M40.81,21s0,0,0,0h0Z"></path><path d="M16.26,26.94A1.71,1.71,0,0,0,19,27l10.19-9.66c.47-.45,1-.88,1.41-1.35A1.66,1.66,0,0,0,30,13.28a1.68,1.68,0,0,0-1.81.49L18,23.4c-.22.22-.33.21-.55,0-1.53-1.59-3.07-3.16-4.61-4.75a2,2,0,0,0-1.6-.65,1.64,1.64,0,0,0-1.34,1.22A1.73,1.73,0,0,0,10.44,21Z"></path></g></g></svg>